<svg width="350" height="71" viewBox="0 0 350 71" fill="none" xmlns="http://www.w3.org/2000/svg">
<g clip-path="url(#clip0_106_3800)">
<path fill-rule="evenodd" clip-rule="evenodd" d="M61.415 22.5071V22.5204V22.5071ZM134.245 6H166.613V14.2537H134.245V6ZM61.415 22.5204L69.1553 30.402V42.9616H61.415V22.5204ZM63.526 6L83.2288 26.1123V6H90.9691V42.9616H88.8581L61.415 14.9714V6H63.526V6ZM96.2466 6H128.615V14.2537H96.2466V6ZM96.2466 19.2774H125.449V27.1723H103.987V42.9616H96.2466V27.1723V25.0192V19.2774V19.2774ZM146.559 19.2774H154.299V42.9616H146.559V19.2774V19.2774Z" fill="url(#paint0_linear_106_3800)"/>
<path fill-rule="evenodd" clip-rule="evenodd" d="M102.092 55.498C102.742 55.498 103.268 54.9637 103.268 54.3047C103.268 53.6456 102.742 53.1113 102.092 53.1113C101.442 53.1113 100.916 53.6456 100.916 54.3047C100.916 54.9637 101.442 55.498 102.092 55.498ZM102.092 57.3481C103.749 57.3481 105.091 55.9855 105.091 54.3047C105.091 52.6238 103.749 51.2612 102.092 51.2612C100.435 51.2612 99.0926 52.6238 99.0926 54.3047C99.0926 55.9855 100.435 57.3481 102.092 57.3481ZM109.89 63.4109C110.54 63.4109 111.067 62.8766 111.067 62.2176C111.067 61.5585 110.54 61.0242 109.89 61.0242C109.241 61.0242 108.714 61.5585 108.714 62.2176C108.714 62.8766 109.241 63.4109 109.89 63.4109ZM109.89 65.261C111.547 65.261 112.89 63.8984 112.89 62.2176C112.89 60.5367 111.547 59.1741 109.89 59.1741C108.234 59.1741 106.891 60.5367 106.891 62.2176C106.891 63.8984 108.234 65.261 109.89 65.261ZM111.397 54.2065L109.836 52.6227L100.292 62.3069L101.853 63.8907L111.397 54.2065ZM75.6074 51.4433C71.8408 51.4433 68.7985 54.5512 68.7985 58.3522C68.7985 62.1742 71.8408 65.2611 75.6074 65.2611C79.3534 65.2611 82.4164 62.1742 82.4164 58.3522C82.4164 54.5512 79.3534 51.4433 75.6074 51.4433ZM75.6074 62.3842C77.7805 62.3842 79.5604 60.5782 79.5604 58.3522C79.5604 56.1472 77.7805 54.3412 75.6074 54.3412C73.4137 54.3412 71.6338 56.1472 71.6338 58.3522C71.6338 60.5782 73.4137 62.3842 75.6074 62.3842ZM90.6046 51.4433C86.8379 51.4433 83.7956 54.5512 83.7956 58.3522C83.7956 62.1742 86.8379 65.2611 90.6046 65.2611C94.3505 65.2611 97.4135 62.1742 97.4135 58.3522C97.4135 54.5512 94.3505 51.4433 90.6046 51.4433ZM90.6046 62.3842C92.7776 62.3842 94.5575 60.5782 94.5575 58.3522C94.5575 56.1472 92.7776 54.3412 90.6046 54.3412C88.4108 54.3412 86.6309 56.1472 86.6309 58.3522C86.6309 60.5782 88.4108 62.3842 90.6046 62.3842ZM63.9994 51.5654H66.9989V65.261H63.9994V51.5654ZM61 51.5655H63.9994V54.609H61V51.5655ZM127.95 65.2612H125.052V57.6383L127.95 60.5783V65.2612ZM133.227 58.8563V51.3803H136.125V65.2612H135.421L133.372 63.1823L129.937 59.6963L127.95 57.6803L125.052 54.7403V52.9763V51.6534V51.2963H125.756L133.227 58.8563ZM138.189 59.3393V56.9453V56.3993H149.179V59.3393H141.087V65.2612H138.189V59.3393ZM150.4 51.4014V54.3413H138.189V51.4014H150.4ZM159.97 56.3993V65.2612H157.073V56.3993H159.97ZM152.479 54.3413V51.4014H164.793V54.3413H159.97H157.073H152.479ZM184.225 59.8223H178.699V62.2793H184.267C184.805 62.1323 185.198 61.6283 185.198 61.0613C185.198 60.4733 184.805 59.9483 184.225 59.8223ZM186.709 57.8903C187.061 58.2053 187.35 58.5833 187.578 59.0033C187.93 59.6333 188.116 60.3263 188.116 61.0613C188.116 61.7753 187.93 62.4893 187.578 63.0983C186.854 64.4422 185.467 65.2612 183.956 65.2612H183.956C183.79 65.2612 183.646 65.2612 183.48 65.2402C183.315 65.2612 183.17 65.2612 183.004 65.2612H183.004H175.802V56.8193H183.253C183.832 56.6933 184.267 56.1683 184.267 55.5593C184.267 54.9923 183.873 54.4883 183.335 54.3413H178.699H175.802V51.3594H183.004C184.494 51.3594 185.881 52.1573 186.605 53.4593C186.626 53.4803 186.647 53.5013 186.647 53.5223C186.978 54.1523 187.164 54.8453 187.164 55.5593C187.164 56.2943 186.978 57.0083 186.647 57.6173C186.626 57.6383 186.626 57.6383 186.626 57.6593C186.605 57.7013 186.585 57.7433 186.564 57.7643C186.585 57.7853 186.61 57.8063 186.636 57.8273C186.662 57.8483 186.688 57.8693 186.709 57.8903ZM189.303 65.2612L189.738 64.4422L194.229 56.2313L196.05 59.5493L193.09 64.9882L192.945 65.2612H189.303ZM198.885 53.8373L204.68 64.4422L205.115 65.2612H201.472L201.327 64.9882L198.595 59.9903L197.25 57.5333L197.209 57.4493L195.388 54.1103L195.532 53.8373L196.712 51.6534L196.857 51.3594H197.561L197.685 51.6534L198.885 53.8373ZM214.932 60.0533L215.077 59.7383H218.119L217.891 60.4733C217.457 61.8593 216.608 63.0352 215.449 63.9172C214.249 64.7992 212.841 65.2612 211.372 65.2612C209.716 65.2612 208.123 64.6732 206.86 63.5602C205.639 62.4683 204.811 60.9773 204.584 59.3393C204.542 59.0033 204.522 58.6463 204.522 58.3103C204.522 57.9743 204.542 57.6593 204.584 57.3233C204.811 55.6853 205.619 54.1733 206.86 53.0813C208.102 51.9683 209.716 51.3594 211.372 51.3594C212.883 51.3594 214.332 51.8423 215.532 52.7663C216.691 53.6693 217.56 54.9503 217.953 56.3783L218.16 57.0713H215.159L215.015 56.7353C214.394 55.2653 212.966 54.2993 211.372 54.2993C209.489 54.2993 207.854 55.6433 207.502 57.5123C207.44 57.7853 207.419 58.0373 207.419 58.3103C207.419 58.5833 207.44 58.8773 207.502 59.1293C207.874 60.9773 209.509 62.3213 211.372 62.3213C212.883 62.3213 214.27 61.4393 214.932 60.0533ZM220.246 51.4014H223.143V54.6773L220.246 57.6173V51.4014ZM226.496 58.3313L232.394 64.3372L233.326 65.2612H229.228L229.062 65.1142L224.447 60.4103L223.143 61.7333V65.2612H220.246V60.5153L224.902 55.7903V55.7693L229.228 51.4014H233.326L232.394 52.3463L226.496 58.3313ZM235.424 51.9474V51.4014H247.635V54.3413H235.424V51.9474ZM246.414 59.3393H238.322V62.3213H247.635V65.2612H235.424V62.8672V62.3213V56.3783L238.322 56.3993H246.414V59.3393ZM259.813 53.1443C261.034 54.2363 261.82 55.7483 262.048 57.3863C262.11 57.7013 262.131 58.0373 262.131 58.3523C262.131 58.7093 262.09 59.0453 262.048 59.3813C261.614 62.4683 259.151 64.8832 256.108 65.2612H256.067H249.713V56.3993H252.611V62.3213H255.881C257.495 62.0693 258.799 60.8093 259.13 59.1923C259.192 58.9193 259.213 58.6463 259.213 58.3523C259.213 58.1003 259.192 57.8273 259.151 57.5753C258.944 56.6093 258.426 55.7483 257.64 55.1603C257.164 54.8033 256.626 54.5513 256.046 54.4253C255.86 54.3833 255.653 54.3623 255.446 54.3413H249.713V51.4014L255.798 51.4223C257.267 51.5273 258.695 52.1363 259.813 53.1443ZM281.561 59.8223H276.035V62.2793H281.602C282.14 62.1323 282.534 61.6283 282.534 61.0613C282.534 60.4733 282.14 59.9483 281.561 59.8223ZM284.044 57.8903C284.396 58.2053 284.686 58.5833 284.914 59.0033C285.265 59.6333 285.452 60.3263 285.452 61.0613C285.452 61.7753 285.265 62.4893 284.914 63.0983C284.189 64.4422 282.803 65.2612 281.292 65.2612H281.292C281.126 65.2612 280.981 65.2612 280.816 65.2402C280.65 65.2612 280.505 65.2612 280.34 65.2612H280.34H273.138V56.8193H280.588C281.168 56.6933 281.602 56.1683 281.602 55.5593C281.602 54.9923 281.209 54.4883 280.671 54.3413H276.035H273.138V51.3594H280.34C281.83 51.3594 283.216 52.1573 283.941 53.4593C283.962 53.4803 283.982 53.5013 283.982 53.5223C284.313 54.1523 284.5 54.8453 284.5 55.5593C284.5 56.2943 284.313 57.0083 283.982 57.6173L283.982 57.6174C283.962 57.6383 283.962 57.6383 283.962 57.6593L283.961 57.6595C283.941 57.7014 283.92 57.7433 283.899 57.7643C283.92 57.7853 283.946 57.8063 283.972 57.8273C283.998 57.8483 284.024 57.8693 284.044 57.8903ZM294.469 51.5903L294.635 51.3594H298.215L297.595 52.2413L293.103 58.4573L292.979 58.6463H292.959V58.6673L292.855 58.7933V65.2612H289.958V58.8143L289.854 58.6673V58.6463H289.834L289.709 58.4573L285.218 52.2413L284.597 51.3594H288.178L288.343 51.5903L291.406 55.8323L294.469 51.5903ZM309.234 51.9474V51.4014H321.445V54.3413H309.234V51.9474ZM320.224 59.3393H312.132V62.3213H321.445V65.2612H309.234V62.8672V62.3213V56.3783L312.132 56.3993H320.224V59.3393ZM331.016 56.3993V65.2612H328.118V56.3993H331.016ZM323.524 54.3413V51.4014H335.838V54.3413H331.016H328.118H323.524ZM347.103 56.4203V51.4223H350V65.2612H347.103V59.3813H340.811V65.2612H337.914V51.4223H340.811V56.4203H347.103Z" fill="url(#paint1_linear_106_3800)"/>
<path fill-rule="evenodd" clip-rule="evenodd" d="M321.7 8.34666H324.648V6H339.387V8.34701H348.23V17.147H349.999V31.2276H347.641V34.1612H344.693V31.2276H342.924V18.9071H339.387V21.8407H336.439V24.7743H333.491V27.7075H330.544V30.6411H327.596V34.1612H324.648V37.0948H321.7V40.028H318.752V42.9616H313.446V37.6814H316.394V34.7478H319.342V31.8146H322.29V28.881H325.238V25.3608H328.185V22.4273H331.133V19.494H334.081V16.5604H337.618V13.6269H324.648V11.2802H321.7V8.34666V8.34666ZM197.303 33.5747H202.02V38.268H197.303V42.9616H183.154V38.268H178.437V33.5747H173.721V15.387H178.437H183.154V10.6937V6H202.02C202.02 9.12899 202.02 12.258 202.02 15.387H197.303V10.6937H183.154H178.437V15.387V33.5747H183.154V38.268H197.303V33.5747ZM206.736 38.268H210.863V10.6937H206.736V6H229.729V10.6937H234.445V19.494H229.729V10.6937H215.58V20.0806H229.729V24.1873H225.012V28.881V38.268H229.729V42.9616H239.162V38.268H229.729V28.881H225.012H220.296V24.1873H215.58V42.9616C212.632 42.9616 209.684 42.9616 206.736 42.9616V38.268V38.268ZM257.438 6H262.155V15.387H266.871V28.881H271.588C271.588 32.01 271.588 35.139 271.588 38.268H275.715V42.9616H262.155V38.268H266.871V33.5747H252.721V38.268H257.438V42.9616H243.878V38.268H248.005C248.005 35.139 248.005 32.01 248.005 28.881H252.722V15.387H257.438V6V6ZM262.155 28.881V15.387H257.438V28.881H262.155ZM280.431 38.268H285.147V10.6937H280.431V6H308.14C308.14 9.12899 308.14 12.258 308.14 15.387H304.013V10.6937H289.864V20.0806H294.58V15.387H299.297V28.881H294.58V24.1873H289.864V38.268H294.58V42.9616H280.431V38.268V38.268Z" fill="url(#paint2_linear_106_3800)"/>
<path fill-rule="evenodd" clip-rule="evenodd" d="M0.341797 37.0589L25.1694 24.877L49.9969 37.0589L25.1694 49.2407L0.341797 37.0589Z" fill="url(#paint3_linear_106_3800)"/>
<path fill-rule="evenodd" clip-rule="evenodd" d="M25.012 0.813965L25.1694 24.8772L0.341797 37.0591L25.012 0.813965Z" fill="#00BAFF"/>
<path fill-rule="evenodd" clip-rule="evenodd" d="M25.0205 0.822754L25.169 24.8767L49.9965 37.0587L25.0205 0.822754Z" fill="#0061B4"/>
<path fill-rule="evenodd" clip-rule="evenodd" d="M25.1527 70.1406L25.1692 52.6727L0.598633 40.1807L25.1527 70.1406Z" fill="#00BAFF"/>
<path fill-rule="evenodd" clip-rule="evenodd" d="M25.1533 70.141L25.1699 52.6731L49.7117 40.1807L25.1533 70.141Z" fill="#0061B4"/>
<path fill-rule="evenodd" clip-rule="evenodd" d="M22.33 53.3884C21.7736 53.989 21.0662 54.2971 20.2443 54.2971H15.549C13.9878 54.2971 12.7146 53.0329 12.7146 51.4828V31.0405L12.3754 31.1526C11.0198 31.601 9.56074 30.9931 8.93316 29.7187C8.30557 28.4441 8.71872 26.9274 9.90754 26.1406L13.6636 23.6544C17.1448 21.3501 22.1041 20.4971 26.2059 20.0865C28.8527 19.8214 31.5118 19.7135 34.1702 19.6465C35.994 19.6006 37.9093 19.6168 39.7224 19.4622C40.5424 19.3923 41.275 19.6403 41.8813 20.193C42.4878 20.7456 42.7991 21.449 42.7991 22.2663V26.5789C42.7991 27.3922 42.491 28.0923 41.8898 28.6446C41.2885 29.1971 40.5618 29.4478 39.7451 29.3848L36.0584 29.1003L37.4719 51.3053C37.5233 52.1098 37.2655 52.8212 36.7098 53.409C36.1541 53.9969 35.4552 54.2971 34.6433 54.2971H29.9479C28.3868 54.2971 27.1135 53.0329 27.1135 51.4828V50.7592C25.7009 50.9365 24.3535 50.9692 23.1952 50.3277C23.2179 51.2891 23.2179 52.4526 22.33 53.3884V53.3884ZM27.1135 31.7132V28.4256C25.3302 28.3413 25.1524 28.3461 23.4048 28.463L27.1135 31.7132Z" fill="#26FFFF" stroke="#26FFFF" stroke-width="0.28432" stroke-miterlimit="22.9256"/>
<path fill-rule="evenodd" clip-rule="evenodd" d="M29.9479 51.483H34.6433L33.0235 26.0436L39.9647 26.5792V22.2666C35.1797 22.6745 21.448 21.8841 15.2358 25.9964L12.4186 27.8613L11.4795 28.4827L12.5683 28.1226C16.3318 26.8778 20.9153 25.1093 28.3827 25.6854L29.9479 25.8062V51.483V51.483ZM21.8615 42.5843L22.999 41.4551C23.4859 40.9716 24.2826 40.9718 24.7696 41.4551L28.1526 44.8142C28.6395 45.2975 28.6389 46.0894 28.1526 46.5723L27.0152 47.7015C26.5288 48.1844 25.7313 48.185 25.2446 47.7015L21.8615 44.3423C21.3748 43.8589 21.3746 43.0677 21.8615 42.5843V42.5843ZM16.488 29.4152C16.9592 29.0079 17.8073 29.0196 18.292 29.4108L27.8302 37.1093C28.3151 37.5006 28.4237 38.1977 28.0457 38.6908L27.161 39.8437C26.783 40.3367 26.0533 40.4494 25.5685 40.0579L18.829 34.6181L20.2442 51.483H15.5489V30.9693C15.5489 30.3476 16.1928 29.6703 16.488 29.4152V29.4152Z" fill="#004295"/>
</g>
<defs>
<linearGradient id="paint0_linear_106_3800" x1="61.415" y1="24.4809" x2="166.613" y2="24.4809" gradientUnits="userSpaceOnUse">
<stop stop-color="#00BAFF"/>
<stop offset="1" stop-color="#0061B4"/>
</linearGradient>
<linearGradient id="paint1_linear_106_3800" x1="61" y1="65.2612" x2="192.967" y2="-85.8643" gradientUnits="userSpaceOnUse">
<stop stop-color="#5B5B5B"/>
<stop offset="1" stop-color="#838383"/>
</linearGradient>
<linearGradient id="paint2_linear_106_3800" x1="173.721" y1="24.4808" x2="349.999" y2="24.4808" gradientUnits="userSpaceOnUse">
<stop stop-color="#EFEFEF"/>
<stop offset="1" stop-color="#B3B3B3"/>
</linearGradient>
<linearGradient id="paint3_linear_106_3800" x1="40.7687" y1="25.0738" x2="9.59547" y2="49.0763" gradientUnits="userSpaceOnUse">
<stop stop-color="#004295"/>
<stop offset="1" stop-color="#0061B4"/>
</linearGradient>
<clipPath id="clip0_106_3800">
<rect width="350" height="71" fill="white"/>
</clipPath>
</defs>
</svg>
